<svg version="1" xmlns="http://www.w3.org/2000/svg" width="1200" height="1200" viewBox="0 0 900.000000 900.000000"><path d="M83.3 26.4C73 29.7 62.9 38.7 58.2 48.8c-2.4 5.2-2.7 7.1-3.3 22.7-.5 15.7-2.3 28.1-23.4 160.5C6.4 390 6.2 391.9 9.9 407.5c1.2 4.9 3.9 12.6 6.1 17 4.7 9.6 299.7 431.5 306.8 438.8 2.6 2.6 7.6 6.2 11.2 8 6 3 7.2 3.2 17 3.2 9.3 0 11.1-.3 16-2.6 3-1.5 19-12.1 35.5-23.7l30-21 15 14.7c19.3 19 22.3 20.6 38 20.6 19 0-2.9 20.2 212.1-194.9 215.1-215 194.9-193.1 194.9-212.1s20.7 3.5-199.4-216.8C586.6 132.1 496.8 42.9 493.5 40.5c-7.4-5.3-15.8-9.5-25-12.6l-7-2.4-187-.2c-152.9-.1-187.8.1-191.2 1.1zM170.6 78c24.6 8.5 38.5 35 31.6 60.1-9 32.3-47.3 46.4-75.2 27.7-15.5-10.3-24.3-30.6-21.1-48.7 5.4-30.4 36.1-48.9 64.7-39.1zM521 220.8c13.8 11.3 33.3 31 44.4 44.7 51.1 63.7 71.1 137.6 54.6 201.9l-2 7.8 3.4 4.2c10 12.2 21 32.7 26.4 49.2 6.1 18.2 8.9 39 7.3 52.4-1 8-2.4 12-4 12-.5 0-2.8-3.3-5.2-7.2-2.3-4-7.3-10.3-11.1-14-22.1-21.8-55.8-22.3-97.5-1.4-68.1 34.1-159.8 23.1-237.3-28.6-8-5.3-18.3-12.7-23-16.4-11-8.8-38.7-36.5-47.4-47.4-10-12.7-19.5-26.9-16.6-24.7 20.6 14.8 49 29.8 72 38.1 60.3 21.5 119 20.3 166.8-3.5 6.7-3.4 12.2-6.4 12.1-6.8 0-.3-6.9-6.1-15.2-12.8-48.1-38.5-101.4-93.8-154.6-160.3-9.1-11.3-19.1-23.7-22.3-27.5-7-8.3-19-25.7-16.2-23.5 1 .9 5.5 4.8 9.9 8.6 26.1 23 69.6 57.2 108 85 25.4 18.5 58.1 40.2 58.9 39.3.2-.2-4.1-5.4-9.7-11.4-33.1-36.2-80.4-95.4-108.2-135.5l-5.9-8.5 14.2 13.5c60 56.9 113.1 100.6 169.1 139.4 22.6 15.6 32.1 21.2 33.2 19.5 1.5-2.3 6-17.7 8-27.3 7.3-35.5 3.6-74.7-10.6-114.1-7.9-21.8-17.8-41-31.8-61.9l-6-8.9 12.9 8.8c7.1 4.8 17.6 12.6 23.4 17.3z"/></svg>