<?xml version="1.0" encoding="UTF-8"?>
<svg width="900px" height="900px" viewBox="0 0 900 900" version="1.1" xmlns="http://www.w3.org/2000/svg" xmlns:xlink="http://www.w3.org/1999/xlink">
    <!-- Generator: Sketch 52.2 (67145) - http://www.bohemiancoding.com/sketch -->
    <title>square_fit</title>
    <desc>Created with Sketch.</desc>
    <defs>
        <linearGradient x1="50%" y1="0%" x2="50%" y2="100%" id="linearGradient-1">
            <stop stop-color="#F88A36" offset="0%"></stop>
            <stop stop-color="#FD2020" offset="100%"></stop>
        </linearGradient>
    </defs>
    <g id="square_fit" stroke="none" stroke-width="1" fill="none" fill-rule="evenodd">
        <g id="logo" transform="translate(8.000000, 25.000000)" fill-rule="nonzero">
            <path d="M94.698839,5.30319368 L435.142534,47.2155598 C457.624698,49.9833616 477.878108,62.1606285 490.87064,80.7218199 L784.766812,500.583241 C797.430629,518.674829 793.03524,543.610292 774.949435,556.278158 L365.93535,842.7645 C347.849545,855.432366 322.922051,851.035571 310.258234,832.943983 L310.258218,832.94396 L14.4597812,410.364263 C2.58654114,393.402072 -2.24737466,372.494567 0.974926297,352.039983 L50.3259547,38.7685602 C53.6808462,17.4723142 73.3080707,2.66975466 94.698839,5.30319368 Z M137.758955,149.069508 C164.938038,153.863446 190.85605,135.709656 195.648456,108.521884 C200.440861,81.3341116 182.292874,55.4078131 155.113791,50.6138753 C127.934708,45.8199375 102.016695,63.9737272 97.2242898,91.1614994 C92.4318842,118.349272 110.579872,144.27557 137.758955,149.069508 Z" id="Shape" fill-opacity="0.8" fill="url(#linearGradient-1)" opacity="0.896067"></path>
            <path d="M87.0030723,0.00275801356 L437.969848,-1.46673074e-09 C459.187386,-0.000166736014 479.535956,8.42839337 494.53902,23.431458 L873.289116,402.181561 C888.910088,417.802533 888.910088,443.129132 873.289116,458.750103 L505.749662,826.289625 C490.12869,841.910597 464.802091,841.910597 449.181119,826.289625 C449.181108,826.289614 449.181097,826.289603 449.181086,826.289592 L70.4313898,447.538922 C55.4283669,432.535863 46.9998333,412.187322 47,390.969819 L47.0033867,40.0030724 C47.0035603,17.9119279 64.9119279,0.0035602852 87.0030724,0.00338668555 L87.0030723,0.00275801356 Z M146.857122,149.857751 C174.471724,149.857751 196.857782,127.471698 196.857782,99.857102 C196.857782,72.242506 174.471724,49.8564529 146.857122,49.8564529 C119.242521,49.8564529 96.856463,72.242506 96.856463,99.857102 C96.856463,127.471698 119.242521,149.857751 146.857122,149.857751 Z" id="Combined-Shape" fill="url(#linearGradient-1)"></path>
            <path d="M340.278283,543.645828 C281.30304,518.588996 232.368922,474.728274 201,424.614611 C216.057173,437.143027 233.623498,447.170266 252.4444,455.93565 C327.664826,491.143654 402.869458,488.73261 455.794077,456.025783 C455.76023,455.991983 455.737666,455.96945 455.715102,455.93565 C380.429239,398.295924 316.436819,323.114162 268.758405,261.722671 C258.716153,251.697685 251.187567,239.167016 243.658981,227.890315 C301.37739,280.516421 392.978387,346.921532 425.595115,365.725423 C356.593416,293.044837 295.105637,202.833483 297.610276,205.334659 C406.77647,315.600493 508.417462,378.253839 508.417462,378.253839 C511.779546,380.146621 514.374444,381.723939 516.461643,383.13226 C518.661665,377.544045 520.590914,371.741766 522.215546,365.725423 C539.781871,301.821488 519.710906,229.140903 475.789452,169 C577.419162,230.397124 637.654621,345.670944 612.551812,442.157773 C611.897447,444.760349 611.186671,447.329124 610.419484,449.852834 C610.71282,450.202097 611.006156,450.562627 611.299492,450.934424 C661.482546,513.58777 647.684463,579.992881 641.411581,567.464465 C614.187726,514.263764 563.790311,530.532678 538.168522,541.326043 C485.513546,571.699565 413.115917,574.820403 340.278283,543.645828 Z" id="Shape" fill="#FFFFFF"></path>
        </g>
    </g>
</svg>